<mxfile host="app.diagrams.net" agent="Mozilla/5.0 (Windows NT 10.0; Win64; x64) AppleWebKit/537.36 (KHTML, like Gecko) Chrome/140.0.0.0 Safari/537.36 Edg/140.0.0.0" version="28.1.1">
  <diagram name="Page-1" id="r-tMwrbQ14cOPzzWk0ll">
    <mxGraphModel dx="868" dy="547" grid="1" gridSize="10" guides="1" tooltips="1" connect="1" arrows="1" fold="1" page="1" pageScale="1" pageWidth="850" pageHeight="1100" math="0" shadow="0">
      <root>
        <mxCell id="0" />
        <mxCell id="1" parent="0" />
        <mxCell id="sDS5nQ1FkqzrpXlYggCA-1" value="USERS" style="shape=table;startSize=25;container=1;collapsible=0;childLayout=tableLayout;fixedRows=1;rowLines=1;fontStyle=1;align=center;resizeLast=1;" vertex="1" parent="1">
          <mxGeometry x="347" y="20" width="203" height="214" as="geometry" />
        </mxCell>
        <mxCell id="sDS5nQ1FkqzrpXlYggCA-2" style="shape=tableRow;horizontal=0;startSize=0;swimlaneHead=0;swimlaneBody=0;fillColor=none;collapsible=0;dropTarget=0;points=[[0,0.5],[1,0.5]];portConstraint=eastwest;top=0;left=0;right=0;bottom=0;" vertex="1" parent="sDS5nQ1FkqzrpXlYggCA-1">
          <mxGeometry y="25" width="203" height="47" as="geometry" />
        </mxCell>
        <mxCell id="sDS5nQ1FkqzrpXlYggCA-3" value="int" style="shape=partialRectangle;connectable=0;fillColor=none;top=0;left=0;bottom=0;right=0;align=left;spacingLeft=2;overflow=hidden;fontSize=11;" vertex="1" parent="sDS5nQ1FkqzrpXlYggCA-2">
          <mxGeometry width="36" height="47" as="geometry">
            <mxRectangle width="36" height="47" as="alternateBounds" />
          </mxGeometry>
        </mxCell>
        <mxCell id="sDS5nQ1FkqzrpXlYggCA-4" value="id" style="shape=partialRectangle;connectable=0;fillColor=none;top=0;left=0;bottom=0;right=0;align=left;spacingLeft=2;overflow=hidden;fontSize=11;" vertex="1" parent="sDS5nQ1FkqzrpXlYggCA-2">
          <mxGeometry x="36" width="145" height="47" as="geometry">
            <mxRectangle width="145" height="47" as="alternateBounds" />
          </mxGeometry>
        </mxCell>
        <mxCell id="sDS5nQ1FkqzrpXlYggCA-5" value="PK" style="shape=partialRectangle;connectable=0;fillColor=none;top=0;left=0;bottom=0;right=0;align=left;spacingLeft=2;overflow=hidden;fontSize=11;" vertex="1" parent="sDS5nQ1FkqzrpXlYggCA-2">
          <mxGeometry x="181" width="22" height="47" as="geometry">
            <mxRectangle width="22" height="47" as="alternateBounds" />
          </mxGeometry>
        </mxCell>
        <mxCell id="sDS5nQ1FkqzrpXlYggCA-6" style="shape=tableRow;horizontal=0;startSize=0;swimlaneHead=0;swimlaneBody=0;fillColor=none;collapsible=0;dropTarget=0;points=[[0,0.5],[1,0.5]];portConstraint=eastwest;top=0;left=0;right=0;bottom=0;" vertex="1" parent="sDS5nQ1FkqzrpXlYggCA-1">
          <mxGeometry y="72" width="203" height="47" as="geometry" />
        </mxCell>
        <mxCell id="sDS5nQ1FkqzrpXlYggCA-7" value="string" style="shape=partialRectangle;connectable=0;fillColor=none;top=0;left=0;bottom=0;right=0;align=left;spacingLeft=2;overflow=hidden;fontSize=11;" vertex="1" parent="sDS5nQ1FkqzrpXlYggCA-6">
          <mxGeometry width="36" height="47" as="geometry">
            <mxRectangle width="36" height="47" as="alternateBounds" />
          </mxGeometry>
        </mxCell>
        <mxCell id="sDS5nQ1FkqzrpXlYggCA-8" value="username" style="shape=partialRectangle;connectable=0;fillColor=none;top=0;left=0;bottom=0;right=0;align=left;spacingLeft=2;overflow=hidden;fontSize=11;" vertex="1" parent="sDS5nQ1FkqzrpXlYggCA-6">
          <mxGeometry x="36" width="145" height="47" as="geometry">
            <mxRectangle width="145" height="47" as="alternateBounds" />
          </mxGeometry>
        </mxCell>
        <mxCell id="sDS5nQ1FkqzrpXlYggCA-9" value="" style="shape=partialRectangle;connectable=0;fillColor=none;top=0;left=0;bottom=0;right=0;align=left;spacingLeft=2;overflow=hidden;fontSize=11;" vertex="1" parent="sDS5nQ1FkqzrpXlYggCA-6">
          <mxGeometry x="181" width="22" height="47" as="geometry">
            <mxRectangle width="22" height="47" as="alternateBounds" />
          </mxGeometry>
        </mxCell>
        <mxCell id="sDS5nQ1FkqzrpXlYggCA-10" style="shape=tableRow;horizontal=0;startSize=0;swimlaneHead=0;swimlaneBody=0;fillColor=none;collapsible=0;dropTarget=0;points=[[0,0.5],[1,0.5]];portConstraint=eastwest;top=0;left=0;right=0;bottom=0;" vertex="1" parent="sDS5nQ1FkqzrpXlYggCA-1">
          <mxGeometry y="119" width="203" height="47" as="geometry" />
        </mxCell>
        <mxCell id="sDS5nQ1FkqzrpXlYggCA-11" value="string" style="shape=partialRectangle;connectable=0;fillColor=none;top=0;left=0;bottom=0;right=0;align=left;spacingLeft=2;overflow=hidden;fontSize=11;" vertex="1" parent="sDS5nQ1FkqzrpXlYggCA-10">
          <mxGeometry width="36" height="47" as="geometry">
            <mxRectangle width="36" height="47" as="alternateBounds" />
          </mxGeometry>
        </mxCell>
        <mxCell id="sDS5nQ1FkqzrpXlYggCA-12" value="password" style="shape=partialRectangle;connectable=0;fillColor=none;top=0;left=0;bottom=0;right=0;align=left;spacingLeft=2;overflow=hidden;fontSize=11;" vertex="1" parent="sDS5nQ1FkqzrpXlYggCA-10">
          <mxGeometry x="36" width="145" height="47" as="geometry">
            <mxRectangle width="145" height="47" as="alternateBounds" />
          </mxGeometry>
        </mxCell>
        <mxCell id="sDS5nQ1FkqzrpXlYggCA-13" value="" style="shape=partialRectangle;connectable=0;fillColor=none;top=0;left=0;bottom=0;right=0;align=left;spacingLeft=2;overflow=hidden;fontSize=11;" vertex="1" parent="sDS5nQ1FkqzrpXlYggCA-10">
          <mxGeometry x="181" width="22" height="47" as="geometry">
            <mxRectangle width="22" height="47" as="alternateBounds" />
          </mxGeometry>
        </mxCell>
        <mxCell id="sDS5nQ1FkqzrpXlYggCA-14" style="shape=tableRow;horizontal=0;startSize=0;swimlaneHead=0;swimlaneBody=0;fillColor=none;collapsible=0;dropTarget=0;points=[[0,0.5],[1,0.5]];portConstraint=eastwest;top=0;left=0;right=0;bottom=0;" vertex="1" parent="sDS5nQ1FkqzrpXlYggCA-1">
          <mxGeometry y="166" width="203" height="47" as="geometry" />
        </mxCell>
        <mxCell id="sDS5nQ1FkqzrpXlYggCA-15" value="string" style="shape=partialRectangle;connectable=0;fillColor=none;top=0;left=0;bottom=0;right=0;align=left;spacingLeft=2;overflow=hidden;fontSize=11;" vertex="1" parent="sDS5nQ1FkqzrpXlYggCA-14">
          <mxGeometry width="36" height="47" as="geometry">
            <mxRectangle width="36" height="47" as="alternateBounds" />
          </mxGeometry>
        </mxCell>
        <mxCell id="sDS5nQ1FkqzrpXlYggCA-16" value="role" style="shape=partialRectangle;connectable=0;fillColor=none;top=0;left=0;bottom=0;right=0;align=left;spacingLeft=2;overflow=hidden;fontSize=11;" vertex="1" parent="sDS5nQ1FkqzrpXlYggCA-14">
          <mxGeometry x="36" width="145" height="47" as="geometry">
            <mxRectangle width="145" height="47" as="alternateBounds" />
          </mxGeometry>
        </mxCell>
        <mxCell id="sDS5nQ1FkqzrpXlYggCA-17" value="" style="shape=partialRectangle;connectable=0;fillColor=none;top=0;left=0;bottom=0;right=0;align=left;spacingLeft=2;overflow=hidden;fontSize=11;" vertex="1" parent="sDS5nQ1FkqzrpXlYggCA-14">
          <mxGeometry x="181" width="22" height="47" as="geometry">
            <mxRectangle width="22" height="47" as="alternateBounds" />
          </mxGeometry>
        </mxCell>
        <mxCell id="sDS5nQ1FkqzrpXlYggCA-18" value="PRODUCTS" style="shape=table;startSize=25;container=1;collapsible=0;childLayout=tableLayout;fixedRows=1;rowLines=1;fontStyle=1;align=center;resizeLast=1;" vertex="1" parent="1">
          <mxGeometry x="325" y="336" width="213" height="214" as="geometry" />
        </mxCell>
        <mxCell id="sDS5nQ1FkqzrpXlYggCA-19" style="shape=tableRow;horizontal=0;startSize=0;swimlaneHead=0;swimlaneBody=0;fillColor=none;collapsible=0;dropTarget=0;points=[[0,0.5],[1,0.5]];portConstraint=eastwest;top=0;left=0;right=0;bottom=0;" vertex="1" parent="sDS5nQ1FkqzrpXlYggCA-18">
          <mxGeometry y="25" width="213" height="47" as="geometry" />
        </mxCell>
        <mxCell id="sDS5nQ1FkqzrpXlYggCA-20" value="int" style="shape=partialRectangle;connectable=0;fillColor=none;top=0;left=0;bottom=0;right=0;align=left;spacingLeft=2;overflow=hidden;fontSize=11;" vertex="1" parent="sDS5nQ1FkqzrpXlYggCA-19">
          <mxGeometry width="36" height="47" as="geometry">
            <mxRectangle width="36" height="47" as="alternateBounds" />
          </mxGeometry>
        </mxCell>
        <mxCell id="sDS5nQ1FkqzrpXlYggCA-21" value="id" style="shape=partialRectangle;connectable=0;fillColor=none;top=0;left=0;bottom=0;right=0;align=left;spacingLeft=2;overflow=hidden;fontSize=11;" vertex="1" parent="sDS5nQ1FkqzrpXlYggCA-19">
          <mxGeometry x="36" width="155" height="47" as="geometry">
            <mxRectangle width="155" height="47" as="alternateBounds" />
          </mxGeometry>
        </mxCell>
        <mxCell id="sDS5nQ1FkqzrpXlYggCA-22" value="PK" style="shape=partialRectangle;connectable=0;fillColor=none;top=0;left=0;bottom=0;right=0;align=left;spacingLeft=2;overflow=hidden;fontSize=11;" vertex="1" parent="sDS5nQ1FkqzrpXlYggCA-19">
          <mxGeometry x="191" width="22" height="47" as="geometry">
            <mxRectangle width="22" height="47" as="alternateBounds" />
          </mxGeometry>
        </mxCell>
        <mxCell id="sDS5nQ1FkqzrpXlYggCA-23" style="shape=tableRow;horizontal=0;startSize=0;swimlaneHead=0;swimlaneBody=0;fillColor=none;collapsible=0;dropTarget=0;points=[[0,0.5],[1,0.5]];portConstraint=eastwest;top=0;left=0;right=0;bottom=0;" vertex="1" parent="sDS5nQ1FkqzrpXlYggCA-18">
          <mxGeometry y="72" width="213" height="47" as="geometry" />
        </mxCell>
        <mxCell id="sDS5nQ1FkqzrpXlYggCA-24" value="string" style="shape=partialRectangle;connectable=0;fillColor=none;top=0;left=0;bottom=0;right=0;align=left;spacingLeft=2;overflow=hidden;fontSize=11;" vertex="1" parent="sDS5nQ1FkqzrpXlYggCA-23">
          <mxGeometry width="36" height="47" as="geometry">
            <mxRectangle width="36" height="47" as="alternateBounds" />
          </mxGeometry>
        </mxCell>
        <mxCell id="sDS5nQ1FkqzrpXlYggCA-25" value="name" style="shape=partialRectangle;connectable=0;fillColor=none;top=0;left=0;bottom=0;right=0;align=left;spacingLeft=2;overflow=hidden;fontSize=11;" vertex="1" parent="sDS5nQ1FkqzrpXlYggCA-23">
          <mxGeometry x="36" width="155" height="47" as="geometry">
            <mxRectangle width="155" height="47" as="alternateBounds" />
          </mxGeometry>
        </mxCell>
        <mxCell id="sDS5nQ1FkqzrpXlYggCA-26" value="" style="shape=partialRectangle;connectable=0;fillColor=none;top=0;left=0;bottom=0;right=0;align=left;spacingLeft=2;overflow=hidden;fontSize=11;" vertex="1" parent="sDS5nQ1FkqzrpXlYggCA-23">
          <mxGeometry x="191" width="22" height="47" as="geometry">
            <mxRectangle width="22" height="47" as="alternateBounds" />
          </mxGeometry>
        </mxCell>
        <mxCell id="sDS5nQ1FkqzrpXlYggCA-27" style="shape=tableRow;horizontal=0;startSize=0;swimlaneHead=0;swimlaneBody=0;fillColor=none;collapsible=0;dropTarget=0;points=[[0,0.5],[1,0.5]];portConstraint=eastwest;top=0;left=0;right=0;bottom=0;" vertex="1" parent="sDS5nQ1FkqzrpXlYggCA-18">
          <mxGeometry y="119" width="213" height="47" as="geometry" />
        </mxCell>
        <mxCell id="sDS5nQ1FkqzrpXlYggCA-28" value="string" style="shape=partialRectangle;connectable=0;fillColor=none;top=0;left=0;bottom=0;right=0;align=left;spacingLeft=2;overflow=hidden;fontSize=11;" vertex="1" parent="sDS5nQ1FkqzrpXlYggCA-27">
          <mxGeometry width="36" height="47" as="geometry">
            <mxRectangle width="36" height="47" as="alternateBounds" />
          </mxGeometry>
        </mxCell>
        <mxCell id="sDS5nQ1FkqzrpXlYggCA-29" value="description" style="shape=partialRectangle;connectable=0;fillColor=none;top=0;left=0;bottom=0;right=0;align=left;spacingLeft=2;overflow=hidden;fontSize=11;" vertex="1" parent="sDS5nQ1FkqzrpXlYggCA-27">
          <mxGeometry x="36" width="155" height="47" as="geometry">
            <mxRectangle width="155" height="47" as="alternateBounds" />
          </mxGeometry>
        </mxCell>
        <mxCell id="sDS5nQ1FkqzrpXlYggCA-30" value="" style="shape=partialRectangle;connectable=0;fillColor=none;top=0;left=0;bottom=0;right=0;align=left;spacingLeft=2;overflow=hidden;fontSize=11;" vertex="1" parent="sDS5nQ1FkqzrpXlYggCA-27">
          <mxGeometry x="191" width="22" height="47" as="geometry">
            <mxRectangle width="22" height="47" as="alternateBounds" />
          </mxGeometry>
        </mxCell>
        <mxCell id="sDS5nQ1FkqzrpXlYggCA-31" style="shape=tableRow;horizontal=0;startSize=0;swimlaneHead=0;swimlaneBody=0;fillColor=none;collapsible=0;dropTarget=0;points=[[0,0.5],[1,0.5]];portConstraint=eastwest;top=0;left=0;right=0;bottom=0;" vertex="1" parent="sDS5nQ1FkqzrpXlYggCA-18">
          <mxGeometry y="166" width="213" height="47" as="geometry" />
        </mxCell>
        <mxCell id="sDS5nQ1FkqzrpXlYggCA-32" value="int" style="shape=partialRectangle;connectable=0;fillColor=none;top=0;left=0;bottom=0;right=0;align=left;spacingLeft=2;overflow=hidden;fontSize=11;" vertex="1" parent="sDS5nQ1FkqzrpXlYggCA-31">
          <mxGeometry width="36" height="47" as="geometry">
            <mxRectangle width="36" height="47" as="alternateBounds" />
          </mxGeometry>
        </mxCell>
        <mxCell id="sDS5nQ1FkqzrpXlYggCA-33" value="price" style="shape=partialRectangle;connectable=0;fillColor=none;top=0;left=0;bottom=0;right=0;align=left;spacingLeft=2;overflow=hidden;fontSize=11;" vertex="1" parent="sDS5nQ1FkqzrpXlYggCA-31">
          <mxGeometry x="36" width="155" height="47" as="geometry">
            <mxRectangle width="155" height="47" as="alternateBounds" />
          </mxGeometry>
        </mxCell>
        <mxCell id="sDS5nQ1FkqzrpXlYggCA-34" value="" style="shape=partialRectangle;connectable=0;fillColor=none;top=0;left=0;bottom=0;right=0;align=left;spacingLeft=2;overflow=hidden;fontSize=11;" vertex="1" parent="sDS5nQ1FkqzrpXlYggCA-31">
          <mxGeometry x="191" width="22" height="47" as="geometry">
            <mxRectangle width="22" height="47" as="alternateBounds" />
          </mxGeometry>
        </mxCell>
        <mxCell id="sDS5nQ1FkqzrpXlYggCA-35" value="CARTS" style="shape=table;startSize=25;container=1;collapsible=0;childLayout=tableLayout;fixedRows=1;rowLines=1;fontStyle=1;align=center;resizeLast=1;" vertex="1" parent="1">
          <mxGeometry x="20" y="379" width="165" height="129" as="geometry" />
        </mxCell>
        <mxCell id="sDS5nQ1FkqzrpXlYggCA-36" style="shape=tableRow;horizontal=0;startSize=0;swimlaneHead=0;swimlaneBody=0;fillColor=none;collapsible=0;dropTarget=0;points=[[0,0.5],[1,0.5]];portConstraint=eastwest;top=0;left=0;right=0;bottom=0;" vertex="1" parent="sDS5nQ1FkqzrpXlYggCA-35">
          <mxGeometry y="25" width="165" height="52" as="geometry" />
        </mxCell>
        <mxCell id="sDS5nQ1FkqzrpXlYggCA-37" value="int" style="shape=partialRectangle;connectable=0;fillColor=none;top=0;left=0;bottom=0;right=0;align=left;spacingLeft=2;overflow=hidden;fontSize=11;" vertex="1" parent="sDS5nQ1FkqzrpXlYggCA-36">
          <mxGeometry width="18" height="52" as="geometry">
            <mxRectangle width="18" height="52" as="alternateBounds" />
          </mxGeometry>
        </mxCell>
        <mxCell id="sDS5nQ1FkqzrpXlYggCA-38" value="id" style="shape=partialRectangle;connectable=0;fillColor=none;top=0;left=0;bottom=0;right=0;align=left;spacingLeft=2;overflow=hidden;fontSize=11;" vertex="1" parent="sDS5nQ1FkqzrpXlYggCA-36">
          <mxGeometry x="18" width="125" height="52" as="geometry">
            <mxRectangle width="125" height="52" as="alternateBounds" />
          </mxGeometry>
        </mxCell>
        <mxCell id="sDS5nQ1FkqzrpXlYggCA-39" value="PK" style="shape=partialRectangle;connectable=0;fillColor=none;top=0;left=0;bottom=0;right=0;align=left;spacingLeft=2;overflow=hidden;fontSize=11;" vertex="1" parent="sDS5nQ1FkqzrpXlYggCA-36">
          <mxGeometry x="143" width="22" height="52" as="geometry">
            <mxRectangle width="22" height="52" as="alternateBounds" />
          </mxGeometry>
        </mxCell>
        <mxCell id="sDS5nQ1FkqzrpXlYggCA-40" style="shape=tableRow;horizontal=0;startSize=0;swimlaneHead=0;swimlaneBody=0;fillColor=none;collapsible=0;dropTarget=0;points=[[0,0.5],[1,0.5]];portConstraint=eastwest;top=0;left=0;right=0;bottom=0;" vertex="1" parent="sDS5nQ1FkqzrpXlYggCA-35">
          <mxGeometry y="77" width="165" height="52" as="geometry" />
        </mxCell>
        <mxCell id="sDS5nQ1FkqzrpXlYggCA-41" value="int" style="shape=partialRectangle;connectable=0;fillColor=none;top=0;left=0;bottom=0;right=0;align=left;spacingLeft=2;overflow=hidden;fontSize=11;" vertex="1" parent="sDS5nQ1FkqzrpXlYggCA-40">
          <mxGeometry width="18" height="52" as="geometry">
            <mxRectangle width="18" height="52" as="alternateBounds" />
          </mxGeometry>
        </mxCell>
        <mxCell id="sDS5nQ1FkqzrpXlYggCA-42" value="user_id" style="shape=partialRectangle;connectable=0;fillColor=none;top=0;left=0;bottom=0;right=0;align=left;spacingLeft=2;overflow=hidden;fontSize=11;" vertex="1" parent="sDS5nQ1FkqzrpXlYggCA-40">
          <mxGeometry x="18" width="125" height="52" as="geometry">
            <mxRectangle width="125" height="52" as="alternateBounds" />
          </mxGeometry>
        </mxCell>
        <mxCell id="sDS5nQ1FkqzrpXlYggCA-43" value="FK" style="shape=partialRectangle;connectable=0;fillColor=none;top=0;left=0;bottom=0;right=0;align=left;spacingLeft=2;overflow=hidden;fontSize=11;" vertex="1" parent="sDS5nQ1FkqzrpXlYggCA-40">
          <mxGeometry x="143" width="22" height="52" as="geometry">
            <mxRectangle width="22" height="52" as="alternateBounds" />
          </mxGeometry>
        </mxCell>
        <mxCell id="sDS5nQ1FkqzrpXlYggCA-44" value="CART_ITEMS" style="shape=table;startSize=25;container=1;collapsible=0;childLayout=tableLayout;fixedRows=1;rowLines=1;fontStyle=1;align=center;resizeLast=1;" vertex="1" parent="1">
          <mxGeometry x="35" y="674" width="190" height="214" as="geometry" />
        </mxCell>
        <mxCell id="sDS5nQ1FkqzrpXlYggCA-45" style="shape=tableRow;horizontal=0;startSize=0;swimlaneHead=0;swimlaneBody=0;fillColor=none;collapsible=0;dropTarget=0;points=[[0,0.5],[1,0.5]];portConstraint=eastwest;top=0;left=0;right=0;bottom=0;" vertex="1" parent="sDS5nQ1FkqzrpXlYggCA-44">
          <mxGeometry y="25" width="190" height="47" as="geometry" />
        </mxCell>
        <mxCell id="sDS5nQ1FkqzrpXlYggCA-46" value="int" style="shape=partialRectangle;connectable=0;fillColor=none;top=0;left=0;bottom=0;right=0;align=left;spacingLeft=2;overflow=hidden;fontSize=11;" vertex="1" parent="sDS5nQ1FkqzrpXlYggCA-45">
          <mxGeometry width="18" height="47" as="geometry">
            <mxRectangle width="18" height="47" as="alternateBounds" />
          </mxGeometry>
        </mxCell>
        <mxCell id="sDS5nQ1FkqzrpXlYggCA-47" value="id" style="shape=partialRectangle;connectable=0;fillColor=none;top=0;left=0;bottom=0;right=0;align=left;spacingLeft=2;overflow=hidden;fontSize=11;" vertex="1" parent="sDS5nQ1FkqzrpXlYggCA-45">
          <mxGeometry x="18" width="150" height="47" as="geometry">
            <mxRectangle width="150" height="47" as="alternateBounds" />
          </mxGeometry>
        </mxCell>
        <mxCell id="sDS5nQ1FkqzrpXlYggCA-48" value="PK" style="shape=partialRectangle;connectable=0;fillColor=none;top=0;left=0;bottom=0;right=0;align=left;spacingLeft=2;overflow=hidden;fontSize=11;" vertex="1" parent="sDS5nQ1FkqzrpXlYggCA-45">
          <mxGeometry x="168" width="22" height="47" as="geometry">
            <mxRectangle width="22" height="47" as="alternateBounds" />
          </mxGeometry>
        </mxCell>
        <mxCell id="sDS5nQ1FkqzrpXlYggCA-49" style="shape=tableRow;horizontal=0;startSize=0;swimlaneHead=0;swimlaneBody=0;fillColor=none;collapsible=0;dropTarget=0;points=[[0,0.5],[1,0.5]];portConstraint=eastwest;top=0;left=0;right=0;bottom=0;" vertex="1" parent="sDS5nQ1FkqzrpXlYggCA-44">
          <mxGeometry y="72" width="190" height="47" as="geometry" />
        </mxCell>
        <mxCell id="sDS5nQ1FkqzrpXlYggCA-50" value="int" style="shape=partialRectangle;connectable=0;fillColor=none;top=0;left=0;bottom=0;right=0;align=left;spacingLeft=2;overflow=hidden;fontSize=11;" vertex="1" parent="sDS5nQ1FkqzrpXlYggCA-49">
          <mxGeometry width="18" height="47" as="geometry">
            <mxRectangle width="18" height="47" as="alternateBounds" />
          </mxGeometry>
        </mxCell>
        <mxCell id="sDS5nQ1FkqzrpXlYggCA-51" value="cart_id" style="shape=partialRectangle;connectable=0;fillColor=none;top=0;left=0;bottom=0;right=0;align=left;spacingLeft=2;overflow=hidden;fontSize=11;" vertex="1" parent="sDS5nQ1FkqzrpXlYggCA-49">
          <mxGeometry x="18" width="150" height="47" as="geometry">
            <mxRectangle width="150" height="47" as="alternateBounds" />
          </mxGeometry>
        </mxCell>
        <mxCell id="sDS5nQ1FkqzrpXlYggCA-52" value="FK" style="shape=partialRectangle;connectable=0;fillColor=none;top=0;left=0;bottom=0;right=0;align=left;spacingLeft=2;overflow=hidden;fontSize=11;" vertex="1" parent="sDS5nQ1FkqzrpXlYggCA-49">
          <mxGeometry x="168" width="22" height="47" as="geometry">
            <mxRectangle width="22" height="47" as="alternateBounds" />
          </mxGeometry>
        </mxCell>
        <mxCell id="sDS5nQ1FkqzrpXlYggCA-53" style="shape=tableRow;horizontal=0;startSize=0;swimlaneHead=0;swimlaneBody=0;fillColor=none;collapsible=0;dropTarget=0;points=[[0,0.5],[1,0.5]];portConstraint=eastwest;top=0;left=0;right=0;bottom=0;" vertex="1" parent="sDS5nQ1FkqzrpXlYggCA-44">
          <mxGeometry y="119" width="190" height="47" as="geometry" />
        </mxCell>
        <mxCell id="sDS5nQ1FkqzrpXlYggCA-54" value="int" style="shape=partialRectangle;connectable=0;fillColor=none;top=0;left=0;bottom=0;right=0;align=left;spacingLeft=2;overflow=hidden;fontSize=11;" vertex="1" parent="sDS5nQ1FkqzrpXlYggCA-53">
          <mxGeometry width="18" height="47" as="geometry">
            <mxRectangle width="18" height="47" as="alternateBounds" />
          </mxGeometry>
        </mxCell>
        <mxCell id="sDS5nQ1FkqzrpXlYggCA-55" value="product_id" style="shape=partialRectangle;connectable=0;fillColor=none;top=0;left=0;bottom=0;right=0;align=left;spacingLeft=2;overflow=hidden;fontSize=11;" vertex="1" parent="sDS5nQ1FkqzrpXlYggCA-53">
          <mxGeometry x="18" width="150" height="47" as="geometry">
            <mxRectangle width="150" height="47" as="alternateBounds" />
          </mxGeometry>
        </mxCell>
        <mxCell id="sDS5nQ1FkqzrpXlYggCA-56" value="FK" style="shape=partialRectangle;connectable=0;fillColor=none;top=0;left=0;bottom=0;right=0;align=left;spacingLeft=2;overflow=hidden;fontSize=11;" vertex="1" parent="sDS5nQ1FkqzrpXlYggCA-53">
          <mxGeometry x="168" width="22" height="47" as="geometry">
            <mxRectangle width="22" height="47" as="alternateBounds" />
          </mxGeometry>
        </mxCell>
        <mxCell id="sDS5nQ1FkqzrpXlYggCA-57" style="shape=tableRow;horizontal=0;startSize=0;swimlaneHead=0;swimlaneBody=0;fillColor=none;collapsible=0;dropTarget=0;points=[[0,0.5],[1,0.5]];portConstraint=eastwest;top=0;left=0;right=0;bottom=0;" vertex="1" parent="sDS5nQ1FkqzrpXlYggCA-44">
          <mxGeometry y="166" width="190" height="47" as="geometry" />
        </mxCell>
        <mxCell id="sDS5nQ1FkqzrpXlYggCA-58" value="int" style="shape=partialRectangle;connectable=0;fillColor=none;top=0;left=0;bottom=0;right=0;align=left;spacingLeft=2;overflow=hidden;fontSize=11;" vertex="1" parent="sDS5nQ1FkqzrpXlYggCA-57">
          <mxGeometry width="18" height="47" as="geometry">
            <mxRectangle width="18" height="47" as="alternateBounds" />
          </mxGeometry>
        </mxCell>
        <mxCell id="sDS5nQ1FkqzrpXlYggCA-59" value="quantity" style="shape=partialRectangle;connectable=0;fillColor=none;top=0;left=0;bottom=0;right=0;align=left;spacingLeft=2;overflow=hidden;fontSize=11;" vertex="1" parent="sDS5nQ1FkqzrpXlYggCA-57">
          <mxGeometry x="18" width="150" height="47" as="geometry">
            <mxRectangle width="150" height="47" as="alternateBounds" />
          </mxGeometry>
        </mxCell>
        <mxCell id="sDS5nQ1FkqzrpXlYggCA-60" value="" style="shape=partialRectangle;connectable=0;fillColor=none;top=0;left=0;bottom=0;right=0;align=left;spacingLeft=2;overflow=hidden;fontSize=11;" vertex="1" parent="sDS5nQ1FkqzrpXlYggCA-57">
          <mxGeometry x="168" width="22" height="47" as="geometry">
            <mxRectangle width="22" height="47" as="alternateBounds" />
          </mxGeometry>
        </mxCell>
        <mxCell id="sDS5nQ1FkqzrpXlYggCA-61" value="ORDERS" style="shape=table;startSize=25;container=1;collapsible=0;childLayout=tableLayout;fixedRows=1;rowLines=1;fontStyle=1;align=center;resizeLast=1;" vertex="1" parent="1">
          <mxGeometry x="678" y="336" width="230" height="214" as="geometry" />
        </mxCell>
        <mxCell id="sDS5nQ1FkqzrpXlYggCA-62" style="shape=tableRow;horizontal=0;startSize=0;swimlaneHead=0;swimlaneBody=0;fillColor=none;collapsible=0;dropTarget=0;points=[[0,0.5],[1,0.5]];portConstraint=eastwest;top=0;left=0;right=0;bottom=0;" vertex="1" parent="sDS5nQ1FkqzrpXlYggCA-61">
          <mxGeometry y="25" width="230" height="47" as="geometry" />
        </mxCell>
        <mxCell id="sDS5nQ1FkqzrpXlYggCA-63" value="int" style="shape=partialRectangle;connectable=0;fillColor=none;top=0;left=0;bottom=0;right=0;align=left;spacingLeft=2;overflow=hidden;fontSize=11;" vertex="1" parent="sDS5nQ1FkqzrpXlYggCA-62">
          <mxGeometry width="36" height="47" as="geometry">
            <mxRectangle width="36" height="47" as="alternateBounds" />
          </mxGeometry>
        </mxCell>
        <mxCell id="sDS5nQ1FkqzrpXlYggCA-64" value="id" style="shape=partialRectangle;connectable=0;fillColor=none;top=0;left=0;bottom=0;right=0;align=left;spacingLeft=2;overflow=hidden;fontSize=11;" vertex="1" parent="sDS5nQ1FkqzrpXlYggCA-62">
          <mxGeometry x="36" width="172" height="47" as="geometry">
            <mxRectangle width="172" height="47" as="alternateBounds" />
          </mxGeometry>
        </mxCell>
        <mxCell id="sDS5nQ1FkqzrpXlYggCA-65" value="PK" style="shape=partialRectangle;connectable=0;fillColor=none;top=0;left=0;bottom=0;right=0;align=left;spacingLeft=2;overflow=hidden;fontSize=11;" vertex="1" parent="sDS5nQ1FkqzrpXlYggCA-62">
          <mxGeometry x="208" width="22" height="47" as="geometry">
            <mxRectangle width="22" height="47" as="alternateBounds" />
          </mxGeometry>
        </mxCell>
        <mxCell id="sDS5nQ1FkqzrpXlYggCA-66" style="shape=tableRow;horizontal=0;startSize=0;swimlaneHead=0;swimlaneBody=0;fillColor=none;collapsible=0;dropTarget=0;points=[[0,0.5],[1,0.5]];portConstraint=eastwest;top=0;left=0;right=0;bottom=0;" vertex="1" parent="sDS5nQ1FkqzrpXlYggCA-61">
          <mxGeometry y="72" width="230" height="47" as="geometry" />
        </mxCell>
        <mxCell id="sDS5nQ1FkqzrpXlYggCA-67" value="int" style="shape=partialRectangle;connectable=0;fillColor=none;top=0;left=0;bottom=0;right=0;align=left;spacingLeft=2;overflow=hidden;fontSize=11;" vertex="1" parent="sDS5nQ1FkqzrpXlYggCA-66">
          <mxGeometry width="36" height="47" as="geometry">
            <mxRectangle width="36" height="47" as="alternateBounds" />
          </mxGeometry>
        </mxCell>
        <mxCell id="sDS5nQ1FkqzrpXlYggCA-68" value="user_id" style="shape=partialRectangle;connectable=0;fillColor=none;top=0;left=0;bottom=0;right=0;align=left;spacingLeft=2;overflow=hidden;fontSize=11;" vertex="1" parent="sDS5nQ1FkqzrpXlYggCA-66">
          <mxGeometry x="36" width="172" height="47" as="geometry">
            <mxRectangle width="172" height="47" as="alternateBounds" />
          </mxGeometry>
        </mxCell>
        <mxCell id="sDS5nQ1FkqzrpXlYggCA-69" value="FK" style="shape=partialRectangle;connectable=0;fillColor=none;top=0;left=0;bottom=0;right=0;align=left;spacingLeft=2;overflow=hidden;fontSize=11;" vertex="1" parent="sDS5nQ1FkqzrpXlYggCA-66">
          <mxGeometry x="208" width="22" height="47" as="geometry">
            <mxRectangle width="22" height="47" as="alternateBounds" />
          </mxGeometry>
        </mxCell>
        <mxCell id="sDS5nQ1FkqzrpXlYggCA-70" style="shape=tableRow;horizontal=0;startSize=0;swimlaneHead=0;swimlaneBody=0;fillColor=none;collapsible=0;dropTarget=0;points=[[0,0.5],[1,0.5]];portConstraint=eastwest;top=0;left=0;right=0;bottom=0;" vertex="1" parent="sDS5nQ1FkqzrpXlYggCA-61">
          <mxGeometry y="119" width="230" height="47" as="geometry" />
        </mxCell>
        <mxCell id="sDS5nQ1FkqzrpXlYggCA-71" value="int" style="shape=partialRectangle;connectable=0;fillColor=none;top=0;left=0;bottom=0;right=0;align=left;spacingLeft=2;overflow=hidden;fontSize=11;" vertex="1" parent="sDS5nQ1FkqzrpXlYggCA-70">
          <mxGeometry width="36" height="47" as="geometry">
            <mxRectangle width="36" height="47" as="alternateBounds" />
          </mxGeometry>
        </mxCell>
        <mxCell id="sDS5nQ1FkqzrpXlYggCA-72" value="total_amount" style="shape=partialRectangle;connectable=0;fillColor=none;top=0;left=0;bottom=0;right=0;align=left;spacingLeft=2;overflow=hidden;fontSize=11;" vertex="1" parent="sDS5nQ1FkqzrpXlYggCA-70">
          <mxGeometry x="36" width="172" height="47" as="geometry">
            <mxRectangle width="172" height="47" as="alternateBounds" />
          </mxGeometry>
        </mxCell>
        <mxCell id="sDS5nQ1FkqzrpXlYggCA-73" value="" style="shape=partialRectangle;connectable=0;fillColor=none;top=0;left=0;bottom=0;right=0;align=left;spacingLeft=2;overflow=hidden;fontSize=11;" vertex="1" parent="sDS5nQ1FkqzrpXlYggCA-70">
          <mxGeometry x="208" width="22" height="47" as="geometry">
            <mxRectangle width="22" height="47" as="alternateBounds" />
          </mxGeometry>
        </mxCell>
        <mxCell id="sDS5nQ1FkqzrpXlYggCA-74" style="shape=tableRow;horizontal=0;startSize=0;swimlaneHead=0;swimlaneBody=0;fillColor=none;collapsible=0;dropTarget=0;points=[[0,0.5],[1,0.5]];portConstraint=eastwest;top=0;left=0;right=0;bottom=0;" vertex="1" parent="sDS5nQ1FkqzrpXlYggCA-61">
          <mxGeometry y="166" width="230" height="47" as="geometry" />
        </mxCell>
        <mxCell id="sDS5nQ1FkqzrpXlYggCA-75" value="string" style="shape=partialRectangle;connectable=0;fillColor=none;top=0;left=0;bottom=0;right=0;align=left;spacingLeft=2;overflow=hidden;fontSize=11;" vertex="1" parent="sDS5nQ1FkqzrpXlYggCA-74">
          <mxGeometry width="36" height="47" as="geometry">
            <mxRectangle width="36" height="47" as="alternateBounds" />
          </mxGeometry>
        </mxCell>
        <mxCell id="sDS5nQ1FkqzrpXlYggCA-76" value="status" style="shape=partialRectangle;connectable=0;fillColor=none;top=0;left=0;bottom=0;right=0;align=left;spacingLeft=2;overflow=hidden;fontSize=11;" vertex="1" parent="sDS5nQ1FkqzrpXlYggCA-74">
          <mxGeometry x="36" width="172" height="47" as="geometry">
            <mxRectangle width="172" height="47" as="alternateBounds" />
          </mxGeometry>
        </mxCell>
        <mxCell id="sDS5nQ1FkqzrpXlYggCA-77" value="" style="shape=partialRectangle;connectable=0;fillColor=none;top=0;left=0;bottom=0;right=0;align=left;spacingLeft=2;overflow=hidden;fontSize=11;" vertex="1" parent="sDS5nQ1FkqzrpXlYggCA-74">
          <mxGeometry x="208" width="22" height="47" as="geometry">
            <mxRectangle width="22" height="47" as="alternateBounds" />
          </mxGeometry>
        </mxCell>
        <mxCell id="sDS5nQ1FkqzrpXlYggCA-78" value="ORDER_ITEMS" style="shape=table;startSize=25;container=1;collapsible=0;childLayout=tableLayout;fixedRows=1;rowLines=1;fontStyle=1;align=center;resizeLast=1;" vertex="1" parent="1">
          <mxGeometry x="687" y="653" width="214" height="257" as="geometry" />
        </mxCell>
        <mxCell id="sDS5nQ1FkqzrpXlYggCA-79" style="shape=tableRow;horizontal=0;startSize=0;swimlaneHead=0;swimlaneBody=0;fillColor=none;collapsible=0;dropTarget=0;points=[[0,0.5],[1,0.5]];portConstraint=eastwest;top=0;left=0;right=0;bottom=0;" vertex="1" parent="sDS5nQ1FkqzrpXlYggCA-78">
          <mxGeometry y="25" width="214" height="46" as="geometry" />
        </mxCell>
        <mxCell id="sDS5nQ1FkqzrpXlYggCA-80" value="int" style="shape=partialRectangle;connectable=0;fillColor=none;top=0;left=0;bottom=0;right=0;align=left;spacingLeft=2;overflow=hidden;fontSize=11;" vertex="1" parent="sDS5nQ1FkqzrpXlYggCA-79">
          <mxGeometry width="18" height="46" as="geometry">
            <mxRectangle width="18" height="46" as="alternateBounds" />
          </mxGeometry>
        </mxCell>
        <mxCell id="sDS5nQ1FkqzrpXlYggCA-81" value="id" style="shape=partialRectangle;connectable=0;fillColor=none;top=0;left=0;bottom=0;right=0;align=left;spacingLeft=2;overflow=hidden;fontSize=11;" vertex="1" parent="sDS5nQ1FkqzrpXlYggCA-79">
          <mxGeometry x="18" width="174" height="46" as="geometry">
            <mxRectangle width="174" height="46" as="alternateBounds" />
          </mxGeometry>
        </mxCell>
        <mxCell id="sDS5nQ1FkqzrpXlYggCA-82" value="PK" style="shape=partialRectangle;connectable=0;fillColor=none;top=0;left=0;bottom=0;right=0;align=left;spacingLeft=2;overflow=hidden;fontSize=11;" vertex="1" parent="sDS5nQ1FkqzrpXlYggCA-79">
          <mxGeometry x="192" width="22" height="46" as="geometry">
            <mxRectangle width="22" height="46" as="alternateBounds" />
          </mxGeometry>
        </mxCell>
        <mxCell id="sDS5nQ1FkqzrpXlYggCA-83" style="shape=tableRow;horizontal=0;startSize=0;swimlaneHead=0;swimlaneBody=0;fillColor=none;collapsible=0;dropTarget=0;points=[[0,0.5],[1,0.5]];portConstraint=eastwest;top=0;left=0;right=0;bottom=0;" vertex="1" parent="sDS5nQ1FkqzrpXlYggCA-78">
          <mxGeometry y="71" width="214" height="46" as="geometry" />
        </mxCell>
        <mxCell id="sDS5nQ1FkqzrpXlYggCA-84" value="int" style="shape=partialRectangle;connectable=0;fillColor=none;top=0;left=0;bottom=0;right=0;align=left;spacingLeft=2;overflow=hidden;fontSize=11;" vertex="1" parent="sDS5nQ1FkqzrpXlYggCA-83">
          <mxGeometry width="18" height="46" as="geometry">
            <mxRectangle width="18" height="46" as="alternateBounds" />
          </mxGeometry>
        </mxCell>
        <mxCell id="sDS5nQ1FkqzrpXlYggCA-85" value="order_id" style="shape=partialRectangle;connectable=0;fillColor=none;top=0;left=0;bottom=0;right=0;align=left;spacingLeft=2;overflow=hidden;fontSize=11;" vertex="1" parent="sDS5nQ1FkqzrpXlYggCA-83">
          <mxGeometry x="18" width="174" height="46" as="geometry">
            <mxRectangle width="174" height="46" as="alternateBounds" />
          </mxGeometry>
        </mxCell>
        <mxCell id="sDS5nQ1FkqzrpXlYggCA-86" value="FK" style="shape=partialRectangle;connectable=0;fillColor=none;top=0;left=0;bottom=0;right=0;align=left;spacingLeft=2;overflow=hidden;fontSize=11;" vertex="1" parent="sDS5nQ1FkqzrpXlYggCA-83">
          <mxGeometry x="192" width="22" height="46" as="geometry">
            <mxRectangle width="22" height="46" as="alternateBounds" />
          </mxGeometry>
        </mxCell>
        <mxCell id="sDS5nQ1FkqzrpXlYggCA-87" style="shape=tableRow;horizontal=0;startSize=0;swimlaneHead=0;swimlaneBody=0;fillColor=none;collapsible=0;dropTarget=0;points=[[0,0.5],[1,0.5]];portConstraint=eastwest;top=0;left=0;right=0;bottom=0;" vertex="1" parent="sDS5nQ1FkqzrpXlYggCA-78">
          <mxGeometry y="117" width="214" height="46" as="geometry" />
        </mxCell>
        <mxCell id="sDS5nQ1FkqzrpXlYggCA-88" value="int" style="shape=partialRectangle;connectable=0;fillColor=none;top=0;left=0;bottom=0;right=0;align=left;spacingLeft=2;overflow=hidden;fontSize=11;" vertex="1" parent="sDS5nQ1FkqzrpXlYggCA-87">
          <mxGeometry width="18" height="46" as="geometry">
            <mxRectangle width="18" height="46" as="alternateBounds" />
          </mxGeometry>
        </mxCell>
        <mxCell id="sDS5nQ1FkqzrpXlYggCA-89" value="product_id" style="shape=partialRectangle;connectable=0;fillColor=none;top=0;left=0;bottom=0;right=0;align=left;spacingLeft=2;overflow=hidden;fontSize=11;" vertex="1" parent="sDS5nQ1FkqzrpXlYggCA-87">
          <mxGeometry x="18" width="174" height="46" as="geometry">
            <mxRectangle width="174" height="46" as="alternateBounds" />
          </mxGeometry>
        </mxCell>
        <mxCell id="sDS5nQ1FkqzrpXlYggCA-90" value="FK" style="shape=partialRectangle;connectable=0;fillColor=none;top=0;left=0;bottom=0;right=0;align=left;spacingLeft=2;overflow=hidden;fontSize=11;" vertex="1" parent="sDS5nQ1FkqzrpXlYggCA-87">
          <mxGeometry x="192" width="22" height="46" as="geometry">
            <mxRectangle width="22" height="46" as="alternateBounds" />
          </mxGeometry>
        </mxCell>
        <mxCell id="sDS5nQ1FkqzrpXlYggCA-91" style="shape=tableRow;horizontal=0;startSize=0;swimlaneHead=0;swimlaneBody=0;fillColor=none;collapsible=0;dropTarget=0;points=[[0,0.5],[1,0.5]];portConstraint=eastwest;top=0;left=0;right=0;bottom=0;" vertex="1" parent="sDS5nQ1FkqzrpXlYggCA-78">
          <mxGeometry y="163" width="214" height="46" as="geometry" />
        </mxCell>
        <mxCell id="sDS5nQ1FkqzrpXlYggCA-92" value="int" style="shape=partialRectangle;connectable=0;fillColor=none;top=0;left=0;bottom=0;right=0;align=left;spacingLeft=2;overflow=hidden;fontSize=11;" vertex="1" parent="sDS5nQ1FkqzrpXlYggCA-91">
          <mxGeometry width="18" height="46" as="geometry">
            <mxRectangle width="18" height="46" as="alternateBounds" />
          </mxGeometry>
        </mxCell>
        <mxCell id="sDS5nQ1FkqzrpXlYggCA-93" value="quantity" style="shape=partialRectangle;connectable=0;fillColor=none;top=0;left=0;bottom=0;right=0;align=left;spacingLeft=2;overflow=hidden;fontSize=11;" vertex="1" parent="sDS5nQ1FkqzrpXlYggCA-91">
          <mxGeometry x="18" width="174" height="46" as="geometry">
            <mxRectangle width="174" height="46" as="alternateBounds" />
          </mxGeometry>
        </mxCell>
        <mxCell id="sDS5nQ1FkqzrpXlYggCA-94" value="" style="shape=partialRectangle;connectable=0;fillColor=none;top=0;left=0;bottom=0;right=0;align=left;spacingLeft=2;overflow=hidden;fontSize=11;" vertex="1" parent="sDS5nQ1FkqzrpXlYggCA-91">
          <mxGeometry x="192" width="22" height="46" as="geometry">
            <mxRectangle width="22" height="46" as="alternateBounds" />
          </mxGeometry>
        </mxCell>
        <mxCell id="sDS5nQ1FkqzrpXlYggCA-95" style="shape=tableRow;horizontal=0;startSize=0;swimlaneHead=0;swimlaneBody=0;fillColor=none;collapsible=0;dropTarget=0;points=[[0,0.5],[1,0.5]];portConstraint=eastwest;top=0;left=0;right=0;bottom=0;" vertex="1" parent="sDS5nQ1FkqzrpXlYggCA-78">
          <mxGeometry y="209" width="214" height="46" as="geometry" />
        </mxCell>
        <mxCell id="sDS5nQ1FkqzrpXlYggCA-96" value="int" style="shape=partialRectangle;connectable=0;fillColor=none;top=0;left=0;bottom=0;right=0;align=left;spacingLeft=2;overflow=hidden;fontSize=11;" vertex="1" parent="sDS5nQ1FkqzrpXlYggCA-95">
          <mxGeometry width="18" height="46" as="geometry">
            <mxRectangle width="18" height="46" as="alternateBounds" />
          </mxGeometry>
        </mxCell>
        <mxCell id="sDS5nQ1FkqzrpXlYggCA-97" value="price_at_time" style="shape=partialRectangle;connectable=0;fillColor=none;top=0;left=0;bottom=0;right=0;align=left;spacingLeft=2;overflow=hidden;fontSize=11;" vertex="1" parent="sDS5nQ1FkqzrpXlYggCA-95">
          <mxGeometry x="18" width="174" height="46" as="geometry">
            <mxRectangle width="174" height="46" as="alternateBounds" />
          </mxGeometry>
        </mxCell>
        <mxCell id="sDS5nQ1FkqzrpXlYggCA-98" value="" style="shape=partialRectangle;connectable=0;fillColor=none;top=0;left=0;bottom=0;right=0;align=left;spacingLeft=2;overflow=hidden;fontSize=11;" vertex="1" parent="sDS5nQ1FkqzrpXlYggCA-95">
          <mxGeometry x="192" width="22" height="46" as="geometry">
            <mxRectangle width="22" height="46" as="alternateBounds" />
          </mxGeometry>
        </mxCell>
        <mxCell id="sDS5nQ1FkqzrpXlYggCA-99" value="has one" style="curved=1;startArrow=ERmandOne;startSize=10;;endArrow=ERzeroToMany;endSize=10;;exitX=0;exitY=0.72;entryX=0.5;entryY=0;rounded=0;" edge="1" parent="1" source="sDS5nQ1FkqzrpXlYggCA-1" target="sDS5nQ1FkqzrpXlYggCA-35">
          <mxGeometry relative="1" as="geometry">
            <Array as="points">
              <mxPoint x="102" y="285" />
            </Array>
          </mxGeometry>
        </mxCell>
        <mxCell id="sDS5nQ1FkqzrpXlYggCA-100" value="has many" style="curved=1;startArrow=ERmandOne;startSize=10;;endArrow=ERoneToMany;endSize=10;;exitX=1;exitY=0.72;entryX=0.5;entryY=0;rounded=0;" edge="1" parent="1" source="sDS5nQ1FkqzrpXlYggCA-1" target="sDS5nQ1FkqzrpXlYggCA-61">
          <mxGeometry relative="1" as="geometry">
            <Array as="points">
              <mxPoint x="794" y="285" />
            </Array>
          </mxGeometry>
        </mxCell>
        <mxCell id="sDS5nQ1FkqzrpXlYggCA-101" value="contains" style="curved=1;startArrow=ERmandOne;startSize=10;;endArrow=ERoneToMany;endSize=10;;exitX=0.5;exitY=1;entryX=0.41;entryY=0;rounded=0;" edge="1" parent="1" source="sDS5nQ1FkqzrpXlYggCA-35" target="sDS5nQ1FkqzrpXlYggCA-44">
          <mxGeometry relative="1" as="geometry">
            <Array as="points">
              <mxPoint x="102" y="601" />
            </Array>
          </mxGeometry>
        </mxCell>
        <mxCell id="sDS5nQ1FkqzrpXlYggCA-102" value="contains" style="curved=1;startArrow=ERmandOne;startSize=10;;endArrow=ERoneToMany;endSize=10;;exitX=0.5;exitY=1;entryX=0.5;entryY=0;rounded=0;" edge="1" parent="1" source="sDS5nQ1FkqzrpXlYggCA-61" target="sDS5nQ1FkqzrpXlYggCA-78">
          <mxGeometry relative="1" as="geometry">
            <Array as="points" />
          </mxGeometry>
        </mxCell>
        <mxCell id="sDS5nQ1FkqzrpXlYggCA-103" value="is in" style="curved=1;startArrow=ERzeroToMany;startSize=10;;endArrow=ERmandOne;endSize=10;;exitX=0.5;exitY=1;entryX=1;entryY=0.24;rounded=0;" edge="1" parent="1" source="sDS5nQ1FkqzrpXlYggCA-18" target="sDS5nQ1FkqzrpXlYggCA-44">
          <mxGeometry relative="1" as="geometry">
            <Array as="points">
              <mxPoint x="432" y="601" />
            </Array>
          </mxGeometry>
        </mxCell>
        <mxCell id="sDS5nQ1FkqzrpXlYggCA-104" value="is in" style="curved=1;startArrow=ERzeroToMany;startSize=10;;endArrow=ERmandOne;endSize=10;;rounded=0;entryX=0.069;entryY=0.006;entryDx=0;entryDy=0;entryPerimeter=0;" edge="1" parent="1" source="sDS5nQ1FkqzrpXlYggCA-31" target="sDS5nQ1FkqzrpXlYggCA-78">
          <mxGeometry relative="1" as="geometry">
            <Array as="points">
              <mxPoint x="570" y="630" />
            </Array>
            <mxPoint x="680" y="650" as="targetPoint" />
          </mxGeometry>
        </mxCell>
      </root>
    </mxGraphModel>
  </diagram>
</mxfile>
